{"title":"Monsters 2 Dark Continent 2014 HDRip x264 AC3-FWOLF","uid":11787758,"size":1082947512,"categoryP":"video","categoryS":"movies","magnet":"?xt=urn:btih:eaef6cea199c94c17912aae1d20f58d02f2ca5b7&amp;dn=Monsters+2+Dark+Continent+2014+HDRip+x264+AC3-FWOLF&amp;tr=udp%3A%2F%2Ftracker.openbittorrent.com%3A80&amp;tr=udp%3A%2F%2Fopen.demonii.com%3A1337&amp;tr=udp%3A%2F%2Ftracker.coppersurfer.tk%3A6969&amp;tr=udp%3A%2F%2Fexodus.desync.com%3A6969","seeders":2,"leechers":0,"uploader":"sakhslitsa","files":4,"time":1427817765,"description":"Format                                   : Matroska\nFormat version                           : Version 4 / Version 2\nFile size                                : 1.00 GiB\nDuration                                 : 1h 59mn\nOverall bit rate mode                    : Variable\nOverall bit rate                         : 1 203 Kbps\nMovie name                               : Monsters Dark Continent 2014 1080p WEB-DL DD5 1 H264-FGT\nEncoded date                             : UTC 2015-03-31 12:29:36\n\nVideo\nID                                       : 1\nFormat                                   : AVC\nFormat/Info                              : Advanced Video Codec\nFormat profile                           : &lt;a class=&quot;__cf_email__&quot; href=&quot;/cdn-cgi/l/email-protection&quot; data-cfemail=&quot;cb83a2aca38b87fee5f9&quot;&gt;[email&amp;#160;protected]&lt;/a&gt;&lt;script cf-hash='f9e31' type=&quot;text/javascript&quot;&gt;\n/* &lt;![CDATA[ */!function(){try{var t=&quot;currentScript&quot;in document?document.currentScript:function(){for(var t=document.getElementsByTagName(&quot;script&quot;),e=t.length;e--;)if(t[e].getAttribute(&quot;cf-hash&quot;))return t[e]}();if(t&amp;&amp;t.previousSibling){var e,r,n,i,c=t.previousSibling,a=c.getAttribute(&quot;data-cfemail&quot;);if(a){for(e=&quot;&quot;,r=parseInt(a.substr(0,2),16),n=2;a.length-n;n+=2)i=parseInt(a.substr(n,2),16)^r,e+=String.fromCharCode(i);e=document.createTextNode(e),c.parentNode.replaceChild(e,c)}}}catch(u){}}();/* ]]&gt; */&lt;/script&gt;\nFormat settings, CABAC                   : Yes\nFormat settings, ReFrames                : 4 frames\nCodec ID                                 : V_MPEG4/ISO/AVC\nDuration                                 : 1h 59mn\nBit rate mode                            : Variable\nBit rate                                 : 818 Kbps\nMaximum bit rate                         : 300 Mbps\nWidth                                    : 720 pixels\nHeight                                   : 304 pixels\nDisplay aspect ratio                     : 2.35:1\nFrame rate mode                          : Constant\nFrame rate                               : 23.976 fps\nColor space                              : YUV\nChroma subsampling                       : 4:2:0\nBit depth                                : 8 bits\nScan type                                : Progressive\nBits/(Pixel*Frame)                       : 0.156\nStream size                              : 677 MiB (66%)\nWriting library                          : x264 core 142 r2479 dd79a61\n\nDefault                                  : Yes\nForced                                   : No\n\nAudio\nID                                       : 2\nFormat                                   : AC-3\nFormat/Info                              : Audio Coding 3\nMode extension                           : CM (complete main)\nFormat settings, Endianness              : Big\nCodec ID                                 : A_AC3\nDuration                                 : 1h 59mn\nBit rate mode                            : Constant\nBit rate                                 : 384 Kbps\nChannel(s)                               : 6 channels\nChannel positions                        : Front: L C R, Side: L R, LFE\nSampling rate                            : 48.0 KHz\nBit depth                                : 16 bits\nCompression mode                         : Lossy\nStream size                              : 327 MiB (32%)\nLanguage                                 : English\nDefault                                  : Yes\nForced                                   : No\n\n\n\nEncoded....................FWOLF              \n\nSource.......................1080p.WEB-DL.DD5.1.H264-FGT (Thanks!)\n\nSample.....................Yes\n\nSubs.......................(srt)  No","torrent":{"xt":"urn:btih:eaef6cea199c94c17912aae1d20f58d02f2ca5b7","amp;dn":"Monsters+2+Dark+Continent+2014+HDRip+x264+AC3-FWOLF","amp;tr":["udp%3A%2F%2Ftracker.openbittorrent.com%3A80","udp%3A%2F%2Fopen.demonii.com%3A1337","udp%3A%2F%2Ftracker.coppersurfer.tk%3A6969","udp%3A%2F%2Fexodus.desync.com%3A6969"],"infoHash":"eaef6cea199c94c17912aae1d20f58d02f2ca5b7","infoHashBuffer":{"type":"Buffer","data":[234,239,108,234,25,156,148,193,121,18,170,225,210,15,88,208,47,44,165,183]},"announce":[],"urlList":[]}}